<mxfile host="app.diagrams.net" modified="2020-12-01T18:54:57.895Z" agent="5.0 (Windows NT 10.0; Win64; x64) AppleWebKit/537.36 (KHTML, like Gecko) Chrome/87.0.4280.66 Safari/537.36" etag="cPk9yj8jOnCIi8SOYbz8" version="13.10.0" type="github">
  <diagram id="YAa2LfLrXAcoXyJOYDJ8" name="Page-1">
    <mxGraphModel dx="1038" dy="548" grid="1" gridSize="10" guides="1" tooltips="1" connect="1" arrows="1" fold="1" page="1" pageScale="1" pageWidth="827" pageHeight="1169" math="0" shadow="0">
      <root>
        <mxCell id="0" />
        <mxCell id="1" parent="0" />
        <mxCell id="o54bC3lG6waeAZR-Cacu-2" value="&lt;font style=&quot;font-size: 20px&quot;&gt;&lt;b&gt;Projet de gain énergétique&lt;/b&gt;&lt;/font&gt;" style="text;html=1;strokeColor=none;fillColor=none;align=center;verticalAlign=middle;whiteSpace=wrap;rounded=0;" vertex="1" parent="1">
          <mxGeometry x="259" y="20" width="310" height="20" as="geometry" />
        </mxCell>
        <mxCell id="o54bC3lG6waeAZR-Cacu-12" value="" style="edgeStyle=orthogonalEdgeStyle;rounded=0;orthogonalLoop=1;jettySize=auto;html=1;" edge="1" parent="1" source="o54bC3lG6waeAZR-Cacu-3" target="o54bC3lG6waeAZR-Cacu-11">
          <mxGeometry relative="1" as="geometry" />
        </mxCell>
        <mxCell id="o54bC3lG6waeAZR-Cacu-3" value="ANAH" style="rounded=0;whiteSpace=wrap;html=1;" vertex="1" parent="1">
          <mxGeometry x="140" y="140" width="140" height="60" as="geometry" />
        </mxCell>
        <mxCell id="o54bC3lG6waeAZR-Cacu-6" value="MaPrimeRenov" style="rounded=0;whiteSpace=wrap;html=1;" vertex="1" parent="1">
          <mxGeometry x="560" y="140" width="140" height="60" as="geometry" />
        </mxCell>
        <mxCell id="o54bC3lG6waeAZR-Cacu-7" value="" style="endArrow=classic;html=1;entryX=1;entryY=0;entryDx=0;entryDy=0;exitX=0.5;exitY=1;exitDx=0;exitDy=0;" edge="1" parent="1" source="o54bC3lG6waeAZR-Cacu-2" target="o54bC3lG6waeAZR-Cacu-3">
          <mxGeometry width="50" height="50" relative="1" as="geometry">
            <mxPoint x="380" y="120" as="sourcePoint" />
            <mxPoint x="430" y="70" as="targetPoint" />
          </mxGeometry>
        </mxCell>
        <mxCell id="o54bC3lG6waeAZR-Cacu-8" value="" style="endArrow=classic;html=1;entryX=0;entryY=0;entryDx=0;entryDy=0;exitX=0.5;exitY=1;exitDx=0;exitDy=0;" edge="1" parent="1" source="o54bC3lG6waeAZR-Cacu-2" target="o54bC3lG6waeAZR-Cacu-6">
          <mxGeometry width="50" height="50" relative="1" as="geometry">
            <mxPoint x="380" y="120" as="sourcePoint" />
            <mxPoint x="430" y="70" as="targetPoint" />
          </mxGeometry>
        </mxCell>
        <mxCell id="o54bC3lG6waeAZR-Cacu-9" value="&lt;font style=&quot;font-size: 10px&quot;&gt;* Un ensemble de travaux important&lt;br&gt;* Gain énergétique d&#39;au moins 25%&lt;/font&gt;" style="ellipse;shape=cloud;whiteSpace=wrap;html=1;" vertex="1" parent="1">
          <mxGeometry x="39" y="50" width="241" height="80" as="geometry" />
        </mxCell>
        <mxCell id="o54bC3lG6waeAZR-Cacu-10" value="&lt;span style=&quot;font-size: 10px&quot;&gt;Des &lt;i&gt;&lt;u&gt;bricoles&lt;/u&gt;&lt;/i&gt; énergétique&amp;nbsp;.&lt;/span&gt;" style="ellipse;shape=cloud;whiteSpace=wrap;html=1;" vertex="1" parent="1">
          <mxGeometry x="550" y="50" width="241" height="80" as="geometry" />
        </mxCell>
        <mxCell id="o54bC3lG6waeAZR-Cacu-11" value="FAIRE" style="shape=hexagon;perimeter=hexagonPerimeter2;whiteSpace=wrap;html=1;fixedSize=1;rounded=0;" vertex="1" parent="1">
          <mxGeometry x="150" y="290" width="100" height="30" as="geometry" />
        </mxCell>
        <mxCell id="o54bC3lG6waeAZR-Cacu-13" value="&lt;font style=&quot;font-size: 9px&quot;&gt;Organisme de conseils et d&#39;accompagnement pour des travaux&lt;/font&gt;" style="ellipse;shape=cloud;whiteSpace=wrap;html=1;" vertex="1" parent="1">
          <mxGeometry x="10" y="230" width="200" height="50" as="geometry" />
        </mxCell>
        <mxCell id="o54bC3lG6waeAZR-Cacu-15" value="" style="rounded=1;whiteSpace=wrap;html=1;" vertex="1" parent="1">
          <mxGeometry x="80" y="360" width="220" height="60" as="geometry" />
        </mxCell>
      </root>
    </mxGraphModel>
  </diagram>
</mxfile>
